<?xml version="1.0" encoding="utf-8"?>
<!-- Svg Vector Icons : http://www.onlinewebfonts.com/icon -->
<!DOCTYPE svg PUBLIC "-//W3C//DTD SVG 1.1//EN" "http://www.w3.org/Graphics/SVG/1.1/DTD/svg11.dtd">
<svg version="1.1" xmlns="http://www.w3.org/2000/svg" xmlns:xlink="http://www.w3.org/1999/xlink" x="0px" y="0px" viewBox="0 0 1000 1000" enable-background="new 0 0 1000 1000" xml:space="preserve">
<metadata> Svg Vector Icons : http://www.onlinewebfonts.com/icon </metadata>
<g><g transform="translate(0.000000,512.000000) scale(0.100000,-0.100000)"><path d="M1776.7,4960.7l-49.8-59.3V3821.8V2742.3h-74.6c-40.2,0-99.5-9.6-134-21.1c-97.6-34.5-116.8-95.7-116.8-390.5v-260.3l-157,5.7l-158.9,5.7l-9.6,281.4c-13.4,392.4,19.1,369.4-490,369.4H191.9l-45.9-53.6l-45.9-53.6v-794.3v-794.3l47.9-45.9c38.3-40.2,65.1-47.9,162.7-47.9h114.8v-2806v-2806l55.5-55.5l55.5-55.5H5000h4463.6l55.5,55.5l55.5,55.5v2806V943h114.8c97.6,0,124.4,7.7,162.7,47.9l47.9,45.9v794.3v794.3l-45.9,53.6l-45.9,53.6h-394.3c-509.1,0-476.6,23-490-369.4l-9.6-281.4l-157-5.7l-158.9-5.7v260.3c0,294.8-19.1,356-116.7,390.5c-34.5,11.5-93.8,21.1-134,21.1H8273v352.2v352.2l474.7,204.8c260.3,114.8,568.5,248.8,683.3,298.6c116.7,49.8,229.7,111,252.7,132.1c51.7,47.9,59.3,160.8,15.3,216.3c-13.4,19.1-338.8,176.1-721.6,346.5c-382.8,172.3-721.6,325.4-756.1,342.6c-84.2,44-166.5,40.2-225.9-11.5l-51.7-42.1l1.9-1094.8l1.9-1092.9l-114.8-7.7c-86.1-5.7-126.3-19.1-162.7-53.6c-45.9-42.1-47.9-53.6-51.7-323.5l-5.7-279.5H7450h-162.7l-1.9,273.7c-1.9,271.8-1.9,275.6-53.6,325.4c-49.8,51.7-51.7,51.7-390.5,57.4c-212.5,3.8-365.6-1.9-409.6-15.3c-130.2-38.3-130.2-38.3-130.2-890c0-903.4-3.8-888.1,216.3-890H6627V445.4V-52.3h-239.3h-239.3v677.6v677.6l-49.8,59.3l-49.8,59.3h-396.2c-509.1,0-476.6,24.9-484.2-363.7l-5.7-277.5H5000h-162.7l-1.9,275.6c-1.9,275.6-1.9,277.5-53.6,321.6c-49.8,42.1-61.3,44-442.1,44h-388.5l-49.8-59.3l-49.8-59.3V625.3V-52.3h-239.3H3373v497.7V943h111c218.2,1.9,214.4-13.4,214.4,890c0,851.8,0,851.8-130.2,890c-44,13.4-197.2,19.1-409.6,15.3c-325.4-5.7-338.8-7.7-386.6-51.7c-47.9-44-49.8-53.6-53.6-325.4l-5.7-279.5H2550h-162.7l-1.9,273.7c-1.9,269.9-3.8,275.6-51.7,325.4c-40.2,38.3-72.7,51.7-166.5,57.4l-114.8,7.7v342.6c0,250.7,5.7,344.5,24.9,356c11.5,7.7,325.4,145.5,692.9,306.3c369.4,158.9,689.1,310.1,713.9,331.1c55.5,55.5,55.5,155,0,220.1c-53.6,59.3-1523.6,717.8-1604,717.8C1843.7,5020,1809.3,5000.9,1776.7,4960.7z M2513.6,4403.7c241.2-105.3,438.3-199.1,438.3-204.8c0-13.4-847.9-384.7-878.6-384.7c-15.3,0-21.1,122.5-21.1,392.4c0,216.3,5.7,392.4,11.5,392.4C2069.6,4598.9,2272.5,4510.9,2513.6,4403.7z M8728.6,4399.8c233.5-105.3,424.9-195.2,424.9-202.9c0-11.5-840.3-382.8-867.1-382.8c-7.7,0-13.4,178-13.4,394.3c0,216.3,7.7,390.5,15.3,386.6C8297.9,4593.2,8495.1,4503.2,8728.6,4399.8z M750.8,2131.7c0-254.6,1.9-269.9,45.9-321.6l45.9-53.6H1235c390.5,0,394.3,0,442.2,45.9c49.8,45.9,49.8,51.7,49.8,321.6v273.7h162.7h162.7v-237.3c0-268,19.1-344.5,97.6-384.7c78.5-40.2,721.6-40.2,800.1,0c78.5,40.2,97.6,116.8,97.6,384.7v237.3h162.7H3373v-564.6v-564.6H1899.2H425.4v564.6v564.6h162.7h162.7V2131.7z M6952.3,2148.9c0-400,3.8-402,497.7-402c388.6,0,440.2,13.4,476.6,116.8c11.5,34.5,21,168.4,21,296.7v237.3h162.7H8273V2124c0-269.9,0-275.6,49.8-321.6c47.9-45.9,51.7-45.9,442.2-45.9h392.4l45.9,53.6c44,51.7,45.9,67,45.9,321.6v266.1h162.7h162.7v-564.6v-564.6H8100.8H6627v564.6v564.6h162.7h162.7V2148.9z M4506.2,816.7c5.7-279.5,5.7-279.5,59.3-325.4c53.6-45.9,59.3-45.9,434.5-45.9c375.1,0,380.9,0,434.5,45.9c53.6,45.9,53.6,45.9,59.3,325.4l5.7,279.5h162.7H5823V410.9v-687.2l49.8-45.9c47.9-44,59.3-45.9,402-51.7l352.2-5.7V-2418v-2036.6h-239.3h-237.4l-5.7,1326.4l-5.7,1324.5l-45.9,124.4c-68.9,197.1-151.2,325.4-306.3,478.5c-216.3,214.4-511,344.5-786.7,344.5c-275.6,0-570.4-130.2-786.7-344.5c-155-153.1-235.4-279.4-308.2-478.5l-44-124.4l-5.7-1326.4l-5.7-1324.5h-237.3H3373V-2418v2038.5l352.2,5.7c342.6,5.7,354.1,7.6,402,51.7l49.8,45.9v687.2v685.2h160.8h162.7L4506.2,816.7z M3041.9,106.6c-7.7-451.7-13.4-1661.4-13.4-2689.3v-1872h-153.1h-153.1v800.1c0,438.3-9.6,857.5-19.1,928.3c-40.2,273.7-216.3,513-474.7,639.3c-137.8,68.9-155,72.7-329.2,72.7c-172.3,0-191.4-3.8-327.3-70.8c-241.2-120.6-423-344.5-474.7-585.7c-13.4-65.1-21.1-400-21.1-941.7v-842.2H913.5H750.8v2689.3V923.9h1152.3h1150.3L3041.9,106.6z M9249.2-1765.4v-2689.3h-162.7h-162.7v847.9c0,920.7-5.7,974.3-109.1,1165.7c-70.8,132.1-248.8,292.9-402,365.6c-118.7,55.5-147.4,61.3-313.9,61.3c-172.3,0-189.5-3.8-327.3-72.7c-252.7-124.4-430.7-357.9-472.8-627.8c-11.5-70.8-21-463.2-21-930.2v-809.6h-153.1h-153.1v1872c0,1027.9-5.7,2237.5-13.4,2689.3l-11.5,817.3H8097h1152.3V-1765.4z M5155-1200.7c153.1-28.7,329.2-118.7,428.8-220.1c107.2-107.2,197.1-289,222-453.6c11.5-70.8,15.3-620.1,13.4-1345.6l-5.7-1225l-817.3-5.7l-819.2-3.8v1238.4c0,704.4,7.7,1288.2,19.1,1353.3c42.1,260.3,204.8,482.3,428.8,587.6C4814.3-1187.3,4967.5-1166.2,5155-1200.7z M2060-2356.8c126.3-38.3,210.5-109.1,268-225.8l49.8-99.5v-886.2v-886.2h-488.1h-488.1v832.6c0,518.7,7.7,867.1,21.1,926.4C1482-2416.1,1763.3-2266.8,2060-2356.8z M8349.6-2389.3c111-61.3,201-183.8,227.8-304.3c13.4-61.3,21-400,21-928.3v-832.6h-488.1h-488.1v886.2v884.3l45.9,97.6c80.4,174.2,239.3,260.3,463.2,250.8C8230.9-2341.5,8290.3-2354.9,8349.6-2389.3z"/><path d="M1175.7,263.6c-34.5-15.3-70.8-49.8-80.4-76.6c-28.7-74.6-24.9-1225,3.8-1278.6c45.9-88.1,44-88.1,802-90h719.7l45.9,49.8l45.9,49.8l5.7,585.7c7.7,668,0,717.8-101.4,761.8C2521.3,303.8,1267.6,303.8,1175.7,263.6z M2377.7-454.2v-402h-488.1h-488.1v402v402h488.1h488.1V-454.2z"/><path d="M7379.2,263.6c-97.6-42.1-105.3-97.6-97.6-759.9l5.7-585.7l45.9-49.8l45.9-49.8h719.7c758,1.9,756.1,1.9,802,90c28.7,53.6,32.5,1203.9,3.8,1278.6c-38.3,97.6-90,105.3-807.7,105.3C7580.2,290.4,7427,284.6,7379.2,263.6z M8598.4-454.2v-402h-488.1h-488.1v402v402h488.1h488.1V-454.2z"/></g></g>
</svg>